# xmcd CD database file
#
# Track frame offsets:
#	150
#	10109
#	20985
#	34761
#	47152
#	63051
#	72385
#	85050
#	98573
#	110084
#	129970
#	141610
#	156334
#	175811
#	193683
#	212555
#	228135
#	246458
#	261010
#	277027
#	287911
#	301295
#	320035
#	333832
#
# Disc length: 4603 seconds
#
# Revision: 1
# Processed by: cddbd v1.5.2PL0 Copyright (c) Steve Scherf et al.
# Submitted via: CDex 1.51
#
DISCID=6311f918
DTITLE=Rev. Barry Willie Black and The Luck, Texas Rangers - Songs Of My Life: In The Key Of: Willie Nelson - CD 1
DYEAR=2013
DGENRE=Country
TTITLE0=Touch Me
TTITLE1=Hello Walls
TTITLE2=Funny How Time Slips Away
TTITLE3=Crazy
TTITLE4=Night Life
TTITLE5=Yesterday
TTITLE6=I Love You Because
TTITLE7=Heartaches By The Number
TTITLE8=The Party's Over
TTITLE9=Have I Told You Lately That I Love You
TTITLE10=(The) Streets Of Laredo
TTITLE11=Sweet Memories
TTITLE12=Both Sides Now
TTITLE13=Me And Paul
TTITLE14=Sunday Mornin' Comin' Down
TTITLE15=Fire And Rain
TTITLE16=Help Me Make It Through The Night
TTITLE17=Good Hearted Woman
TTITLE18=Whiskey River
TTITLE19=Blue Eyes Crying In The Rain
TTITLE20=Remember Me
TTITLE21=That Lucky Old Sun
TTITLE22=That's The Way Love Goes
TTITLE23=Mamas Don't Let Your Babies Grow Up to Be Cowboys
EXTD=YEAR: 2013
EXTT0=
EXTT1=
EXTT2=
EXTT3=
EXTT4=
EXTT5=
EXTT6=
EXTT7=
EXTT8=
EXTT9=
EXTT10=
EXTT11=
EXTT12=
EXTT13=
EXTT14=
EXTT15=
EXTT16=
EXTT17=
EXTT18=
EXTT19=
EXTT20=
EXTT21=
EXTT22=
EXTT23=
PLAYORDER=
